<?xml version="1.0" encoding="UTF-8"?>
<svg width="40px" height="48px" viewBox="0 0 40 48" version="1.1" xmlns="http://www.w3.org/2000/svg" xmlns:xlink="http://www.w3.org/1999/xlink">
    <title>Combined Shape Copy</title>
    <g id="Designs" stroke="none" stroke-width="1" fill="none" fill-rule="evenodd">
        <g id="Contact---Desktop---Active" transform="translate(-1040.000000, -1684.000000)" fill="#1B1D23">
            <g id="Group-3" transform="translate(165.000000, 1552.000000)">
                <path d="M909.142136,137.823376 C916.906638,145.542165 916.943695,158.093853 909.224907,165.858355 C909.197398,165.886026 909.169807,165.913617 909.142136,165.941125 L895,180 L880.857864,165.941125 C873.093362,158.222337 873.056305,145.670649 880.775093,137.906147 C880.802602,137.878476 880.830193,137.850885 880.857864,137.823376 C888.681822,130.045482 901.318178,130.045482 909.142136,137.823376 Z M895.327869,146.993173 C892.792791,146.993173 890.737705,149.03616 890.737705,151.556312 C890.737705,154.076465 892.792791,156.119452 895.327869,156.119452 C897.862946,156.119452 899.918033,154.076465 899.918033,151.556312 C899.918033,149.03616 897.862946,146.993173 895.327869,146.993173 Z" id="Combined-Shape-Copy"></path>
            </g>
        </g>
    </g>
</svg>