<?xml version="1.0" encoding="UTF-8"?>
<svg width="97px" height="40px" viewBox="0 0 97 40" version="1.1" xmlns="http://www.w3.org/2000/svg" xmlns:xlink="http://www.w3.org/1999/xlink">
    <title>Arch 2</title>
    <g id="Designs" stroke="none" stroke-width="1" fill="none" fill-rule="evenodd">
        <g id="Home---Desktop" transform="translate(-217.000000, -3571.000000)" fill="#FFFFFF" fill-rule="nonzero">
            <g id="Group-24" transform="translate(165.000000, 3491.000000)">
                <g id="Arch-2" transform="translate(52.000000, 80.000000)">
                    <path d="M10.8219178,39.2694064 L13.0821918,33.0136986 L26.9178082,33.0136986 L29.1780822,39.2694064 L40,39.2694064 L24.6575342,1.59817352 L15.3424658,1.59817352 L1.70530257e-13,39.2694064 L10.8219178,39.2694064 Z M23.4931507,24.2009132 L16.5068493,24.2009132 L20,15.2511416 L23.4931507,24.2009132 Z M45.2968037,39.2694064 L45.2968037,27.8082192 C45.2968037,27.0319635 45.5175038,26.3089802 45.9589041,25.6392694 C46.4003044,24.9695586 46.9824962,24.4254186 47.7054795,24.0068493 C48.4284627,23.5882801 49.1933029,23.3789954 50,23.3789954 C50.6392694,23.3789954 51.3432268,23.5083714 52.1118721,23.7671233 C52.8805175,24.0258752 53.5464231,24.3683409 54.109589,24.7945205 L54.109589,24.7945205 L58.0821918,16.803653 C57.4277017,16.3165906 56.5981735,15.9208524 55.5936073,15.6164384 C54.5890411,15.3120244 53.6377473,15.1598174 52.739726,15.1598174 C51.3546423,15.1598174 50.0114155,15.5136986 48.7100457,16.2214612 C47.4086758,16.9292237 46.2709285,17.9147641 45.2968037,19.1780822 L45.2968037,19.1780822 L45.2968037,15.890411 L35.7990868,15.890411 L35.7990868,39.2694064 L45.2968037,39.2694064 Z M64.2922374,40 C65.7990868,40 67.2336377,39.7907154 68.5958904,39.3721461 C69.9581431,38.9535769 71.0350076,38.4627093 71.826484,37.8995434 L71.826484,37.8995434 L68.7214612,31.5068493 C68.4322679,31.7047184 68.0327245,31.8835616 67.5228311,32.043379 C67.0129376,32.2031963 66.4535769,32.283105 65.8447489,32.283105 C64.8554033,32.283105 63.9954338,32.06621 63.2648402,31.6324201 C62.5342466,31.1986301 61.9748858,30.6240487 61.586758,29.9086758 C61.1986301,29.1933029 61.0045662,28.4170472 61.0045662,27.5799087 C61.0045662,26.9101979 61.1681887,26.2100457 61.4954338,25.4794521 C61.8226788,24.7488584 62.3401826,24.1324201 63.0479452,23.630137 C63.7557078,23.1278539 64.6727549,22.8767123 65.7990868,22.8767123 C66.9863014,22.8767123 67.9604262,23.1354642 68.7214612,23.652968 L68.7214612,23.652968 L71.826484,17.260274 C71.065449,16.6818874 69.9847793,16.1872146 68.5844749,15.7762557 C67.1841705,15.3652968 65.738204,15.1598174 64.2465753,15.1598174 C62.3439878,15.1598174 60.5821918,15.5060883 58.9611872,16.1986301 C57.3401826,16.891172 55.9322679,17.8272451 54.7374429,19.0068493 C53.542618,20.1864536 52.6141553,21.5182648 51.9520548,23.0022831 C51.2899543,24.4863014 50.9589041,26.0197869 50.9589041,27.6027397 C50.9589041,29.2922374 51.3127854,30.8866058 52.0205479,32.3858447 C52.7283105,33.8850837 53.6986301,35.2054795 54.9315068,36.347032 C56.1643836,37.4885845 57.5837139,38.3828006 59.1894977,39.0296804 C60.7952816,39.6765601 62.4961948,40 64.2922374,40 Z M78.9954338,39.2694064 L78.9954338,26.3926941 C78.9954338,25.6012177 79.1552511,24.9162861 79.4748858,24.3378995 C79.7945205,23.7595129 80.2435312,23.3105023 80.8219178,22.9908676 C81.4003044,22.6712329 82.0700152,22.5114155 82.8310502,22.5114155 C83.9878234,22.5114155 84.9162861,22.8652968 85.6164384,23.5730594 C86.3165906,24.2808219 86.6666667,25.2207002 86.6666667,26.3926941 L86.6666667,26.3926941 L86.6666667,39.2694064 L96.1643836,39.2694064 L96.1643836,24.3378995 C96.1643836,22.587519 95.7534247,21.0235921 94.9315068,19.6461187 C94.109589,18.2686454 92.9946728,17.1765601 91.586758,16.369863 C90.1788432,15.5631659 88.5844749,15.1598174 86.803653,15.1598174 C85.4033486,15.1598174 84.02207,15.4147641 82.6598174,15.9246575 C81.2975647,16.434551 80.0761035,17.1537291 78.9954338,18.0821918 L78.9954338,18.0821918 L78.9954338,0 L69.4977169,0 L69.4977169,39.2694064 L78.9954338,39.2694064 Z" id="Arch"></path>
                </g>
            </g>
        </g>
    </g>
</svg>